<?xml version="1.0" encoding="UTF-8"?>
<svg id="Capa_2" data-name="Capa 2" xmlns="http://www.w3.org/2000/svg" viewBox="0 0 414.36 411.86">
  <defs>
    <style>
      .cls-1 {
        fill: #e9b349;
      }
    </style>
  </defs>
  <g id="Capa_1-2" data-name="Capa 1">
    <g>
      <polygon class="cls-1" points="7.96 227.72 20.84 218.53 33.72 227.72 28.76 212.9 41.68 203.75 25.73 203.78 20.84 188.94 15.94 203.78 0 203.75 12.91 212.9 7.96 227.72"/>
      <polygon class="cls-1" points="194.33 38.79 207.21 29.59 220.09 38.79 215.13 23.96 228.05 14.82 212.11 14.85 207.21 0 202.31 14.85 186.37 14.82 199.29 23.96 194.33 38.79"/>
      <polygon class="cls-1" points="212.11 387.91 207.21 373.07 202.31 387.91 186.37 387.89 199.29 397.03 194.33 411.86 207.21 402.66 220.09 411.86 215.13 397.03 228.05 387.89 212.11 387.91"/>
      <polygon class="cls-1" points="393.52 188.94 388.62 203.78 372.68 203.75 385.6 212.9 380.64 227.72 393.52 218.53 406.4 227.72 401.44 212.9 414.36 203.75 398.42 203.78 393.52 188.94"/>
      <path class="cls-1" d="M332.37,155.74c.04.09.08.19.11.28,0,.01,0,.02,0,.04,1.4,11.11,1.61,22.3.75,33.38-8.35,3.06-18.87,4.2-28.67,3.13,6.45-15.72,11.7-28.52,14.37-35.12,10.14-25.36,15.3-27.81,33.34-29.9v-9.21h-63.97v2.74c-22.19-1.14-47.83-9.51-66.36-23.21,10.31-7.94,22.1-13.87,33.53-16.48,15.41,5.89,29.49,14.51,41.63,25.26h16.37c-.76-.8-1.54-1.59-2.32-2.38-27.77-27.77-64.68-43.06-103.95-43.06s-76.19,15.29-103.95,43.06c-27.77,27.77-43.06,64.69-43.06,103.95,0,22.8,5.17,44.8,14.92,64.68,2.09-2.05,4.32-5.89,6.99-12.05-5.84-13.84-9.45-28.84-10.38-44.56,3.44,9.34,8.98,18.8,15.44,26.59.31,9.1,1.43,17.91,3.37,26.27.04.19.27.19.4.32-7.52,15.6-13.72,17.26-28.81,19.18v9.45h63.97v-9.21c-22.34-2.25-24.66-4.72-18.7-22.5,3.18-9.63,7.19-20.33,10.75-30.35h56.48c4.77,13.41,9.63,26.46,12.71,35.71,3.91,11.51,1.95,14.73-15.83,17.14l-.18,9.21h2.34c9.92,5.86,24.75,10.71,41.92,13.79-11.09,11.95-26.78,24.19-39.37,28.47-22.23-5.21-42.37-15.91-58.92-30.57h-16.37c.76.8,1.54,1.59,2.32,2.38,27.77,27.77,64.68,43.06,103.95,43.06s76.19-15.29,103.95-43.06c27.77-27.77,43.06-64.68,43.06-103.95,0-22.78-5.16-44.77-14.9-64.65-2.05,2.17-4.25,6-6.95,12.16ZM311.5,195.12c7.53,0,15.11-1.22,21.55-3.45-2.21,24.4-9.59,48.23-20.88,69.59-11.29.76-23.78-.19-34.87-1.88,8.94-22.1,18.54-45.54,26.46-64.86,2.55.3,5.12.6,7.73.6ZM311.04,263.38c-10.32,18.94-23.72,35.85-39.31,49.38-16.35,1.46-34.93.47-52.06-2.32,3.69-4.23,6.75-8.35,8.81-11.99.06-.11.02-.22.04-.33h33.28c4.29-10.88,9.37-23.56,14.73-36.8,8.59,1.33,17.96,2.27,27.13,2.27,2.49,0,4.96-.07,7.39-.2ZM288.32,123.15v4.4c22.66,2.54,25.04,6.05,18.52,23.77-8.54,23.48-24.37,63.04-40.02,100.6-12.01-31.36-32.22-86.72-40.08-108.52-4.16-10.95-3.78-13.33,16.17-15.86l.18-9.21h-40.81c4.9-7.02,11.06-13.57,18.04-19.18,18.96,14.18,45.28,22.84,68.01,23.99ZM202.68,72.67c.08-.02.16-.05.24-.08,1.42-.04,2.85-.07,4.29-.07,15.71,0,30.8,2.69,44.85,7.63-10.93,3.01-22.03,8.85-31.8,16.45-8.65-6.71-15.59-14.61-19.65-23.47.69-.16,1.38-.32,2.07-.46ZM218.63,97.88c-7.37,5.97-13.81,12.97-18.84,20.46h-47.18l-.46,1.12c-3.14-3.68-6.27-7.55-8.96-11.9,16.88-17.2,36.01-29.03,55.37-33.94,4.12,9.16,11.21,17.33,20.06,24.27ZM151.29,121.62l-27.72,68.23c-8-5.31-15.1-12.09-20.7-19.85,4.68-11.5,10.5-22.78,17.42-33.55,6.52-10.15,13.74-19.31,21.44-27.36,2.9,4.6,6.24,8.68,9.56,12.53ZM192.07,73.36c-17.51,5.71-34.65,16.88-49.96,32.38-2.32-4.02-4.25-8.36-5.45-13.05-.03-.1-.07-.2-.12-.28,16.52-10.12,35.37-16.8,55.54-19.05ZM134.75,93.52c1.31,4.97,3.39,9.53,5.87,13.75-7.93,8.24-15.36,17.65-22.06,28.07-6.64,10.32-12.36,21.34-17.04,32.72-5.87-8.66-9.94-18.31-11.59-28.07,11.01-18.84,26.42-34.8,44.82-46.47ZM87.09,239.53c-7.19-9.23-13.01-20.51-15.6-30.98,0-.11,0-.22,0-.32,0-23.73,6.13-46.05,16.87-65.47,2.01,9.64,6.29,19.1,12.24,27.57-3.94,9.9-7.09,20.06-9.35,30.25-2.93,13.21-4.31,26.33-4.15,38.96ZM94.81,260.66c-.91,2.29-1.76,4.2-2.62,6.11-1.5-6.93-2.5-14.07-2.89-21.38,2.72,3.04,5.6,5.62,8.5,7.9l-3,7.37ZM98.63,251.26c-3.25-2.62-6.46-5.61-9.46-9.16-.71-22.66,3.71-46.69,12.81-69.86,5.7,7.64,12.82,14.31,20.8,19.55l-24.15,59.46ZM122.7,222.8c7.47-20.96,15.87-42,24.25-63.47l22.86,63.47h-47.11ZM169.05,128.01c13.91,1.92,17.84,6.64,25.3,25.25,11.6,29.62,38.1,100,50.93,134.87-15.01-2.17-17.87-5.75-26.93-29.12-16.74-44.03-32.8-86.33-49.3-131ZM178.2,298.12h48.03c-2.15,3.65-5.2,7.73-8.93,11.92-15.36-2.67-29.14-6.85-39.09-11.92ZM207.21,343.95c-9.35,0-18.48-.96-27.3-2.77,12.63-5.29,27.56-17.3,38.08-28.85,5.96,1,12.17,1.79,18.52,2.34,6.65.58,13.11.86,19.29.86,4.57,0,8.99-.16,13.22-.47-17.21,14.27-36.93,24.46-58.01,28.83-1.27.04-2.53.06-3.81.06ZM222.62,343.07c14.12-4.29,27.66-11.09,40.39-20.35,3.46-2.51,6.81-5.19,10.08-8,9.1-.9,17.21-2.53,23.96-4.86-20.33,17.99-46.06,29.99-74.43,33.21ZM301.25,305.99c-6.98,3.14-15.75,5.21-25.45,6.35,11.06-9.97,20.98-21.69,29.58-35.01,2.97-4.6,5.73-9.31,8.28-14.13,7.2-.57,13.88-1.84,19.34-4.01-7.23,17.78-18.12,33.69-31.74,46.79ZM342.93,208.23c0,16.99-3.15,33.27-8.88,48.27-5.26,2.45-11.95,3.88-19.29,4.56,11.37-22.12,18.35-46.22,20.39-70.17,2.28-.9,4.37-1.94,6.24-3.1,1.01,6.67,1.54,13.49,1.54,20.43ZM335.33,188.61c.61-8.48.61-16.94-.04-25.27,2.52,7.16,4.45,14.6,5.74,22.25-1.69,1.12-3.61,2.13-5.7,3.02Z"/>
      <path class="cls-1" d="M19.66,180.89c.48.09.96.13,1.43.13,3.64,0,6.88-2.59,7.58-6.3C42.32,101.72,100.53,43.49,173.52,29.8c4.19-.79,6.95-4.82,6.16-9.01-.78-4.19-4.82-6.95-9.01-6.16-39.05,7.32-74.62,26.12-102.85,54.37-28.24,28.25-47.02,63.82-54.33,102.88-.78,4.19,1.98,8.22,6.17,9.01Z"/>
      <path class="cls-1" d="M240.9,29.8c72.99,13.69,131.2,71.92,144.86,144.92.69,3.71,3.93,6.3,7.58,6.3.47,0,.95-.04,1.43-.13,4.19-.78,6.95-4.81,6.17-9.01-7.31-39.06-26.09-74.63-54.33-102.88-28.24-28.25-63.8-47.05-102.85-54.37-4.19-.79-8.22,1.97-9.01,6.16-.79,4.19,1.97,8.22,6.16,9.01Z"/>
      <path class="cls-1" d="M234.67,395.88c.69,3.71,3.93,6.3,7.58,6.3.47,0,.95-.04,1.43-.13,39.07-7.31,74.65-26.11,102.9-54.36,28.25-28.25,47.04-63.84,54.35-102.9.78-4.19-1.98-8.22-6.17-9.01-4.19-.79-8.22,1.98-9,6.17-13.66,73.02-71.9,131.27-144.92,144.93-4.19.78-6.95,4.82-6.17,9.01Z"/>
      <path class="cls-1" d="M172.17,402.18c3.64,0,6.88-2.59,7.58-6.3.78-4.19-1.98-8.22-6.17-9.01-73.02-13.67-131.26-71.91-144.92-144.93-.78-4.19-4.82-6.95-9-6.17-4.19.78-6.95,4.81-6.17,9.01,7.31,39.07,26.1,74.65,54.35,102.9,28.25,28.25,63.83,47.05,102.9,54.36.48.09.96.13,1.43.13Z"/>
    </g>
  </g>
</svg>