<?xml version="1.0" encoding="UTF-8"?>
<svg id="Capa_2" data-name="Capa 2" xmlns="http://www.w3.org/2000/svg" viewBox="0 0 1449.01 343.15">
  <defs>
    <style>
      .cls-1, .cls-2 {
        fill: #e9b349;
      }

      .cls-2 {
        fill-rule: evenodd;
      }
    </style>
  </defs>
  <g id="Capa_1-2" data-name="Capa 1">
    <g>
      <g>
        <polygon class="cls-2" points="17.36 157.42 21.44 169.79 34.72 169.76 23.96 177.38 28.09 189.73 17.36 182.07 6.63 189.73 10.76 177.38 0 169.76 13.28 169.79 17.36 157.42"/>
        <polygon class="cls-2" points="172.64 0 176.72 12.37 190 12.35 179.24 19.96 183.37 32.32 172.64 24.65 161.91 32.32 166.04 19.96 155.28 12.35 168.56 12.37 172.64 0"/>
        <polygon class="cls-2" points="172.64 310.83 176.72 323.2 190 323.18 179.24 330.8 183.37 343.15 172.64 335.49 161.91 343.15 166.04 330.8 155.28 323.18 168.56 323.2 172.64 310.83"/>
        <polygon class="cls-2" points="327.87 157.42 331.95 169.79 345.23 169.76 334.47 177.38 338.6 189.73 327.87 182.07 317.14 189.73 321.27 177.38 310.51 169.76 323.79 169.79 327.87 157.42"/>
        <g>
          <path class="cls-1" d="M240.22,98.6v7.67c18.88,2.12,20.86,5.04,15.43,19.81-7.12,19.57-20.3,52.53-33.34,83.82-10-26.13-26.84-72.25-33.39-90.42-3.47-9.12-3.15-11.1,13.47-13.21l.15-7.67h-75.38l-48.16,118.57c-7.99,20.02-12.58,21.48-27.23,23.34v7.87h53.3v-7.67c-18.62-1.87-20.54-3.93-15.58-18.75,2.65-8.02,5.99-16.94,8.95-25.29h47.06c3.98,11.17,8.02,22.05,10.59,29.75,3.26,9.59,1.62,12.27-13.19,14.28l-.15,7.67h75.38c14.79-37.53,40.9-100.62,47.61-117.2,8.45-21.13,12.75-23.17,27.78-24.91v-7.67h-53.3ZM102.23,185.63c6.22-17.46,13.22-35,20.21-52.88l19.05,52.88h-39.25ZM181.92,215.8c-13.95-36.69-27.33-71.93-41.07-109.15,11.59,1.6,14.86,5.54,21.08,21.04,9.66,24.68,31.74,83.32,42.43,112.37-12.51-1.8-14.89-4.79-22.44-24.26Z"/>
          <g>
            <path class="cls-1" d="M282.71,119.63c-1.71,1.81-3.54,5-5.79,10.13.03.08.06.16.1.24,0,.01,0,.02,0,.03,1.17,9.26,1.34,18.58.63,27.81-7.65,2.81-17.55,3.79-26.36,2.38-.47-.08-.91.24-.98.71-.07.47.24.91.71.98,2.77.44,5.64.66,8.53.66,6.27,0,12.59-1.02,17.95-2.87-1.84,20.33-7.99,40.19-17.39,57.98-10.37.7-22.02-.29-31.91-1.98-.47-.08-.91.23-.99.7-.08.47.23.91.7.99,7.76,1.33,16.6,2.22,25.1,2.22,2.08,0,4.13-.05,6.15-.17-8.6,15.78-19.76,29.87-32.75,41.14-13.62,1.21-29.11.39-43.38-1.93,3.08-3.53,5.62-6.96,7.34-9.99.23-.41.09-.94-.32-1.17-.41-.23-.94-.09-1.17.32-1.8,3.18-4.52,6.8-7.82,10.5-14.63-2.54-27.8-6.66-36.12-11.75-.4-.25-.93-.12-1.18.28-.25.4-.12.93.28,1.18,8.25,5.05,20.94,9.21,35.6,11.84-9.24,9.96-22.32,20.16-32.8,23.72-18.52-4.34-35.3-13.25-49.09-25.47h-13.64c.64.67,1.28,1.33,1.93,1.98,23.13,23.13,53.89,35.88,86.61,35.88s63.48-12.74,86.61-35.88c23.13-23.13,35.88-53.89,35.88-86.61,0-18.98-4.3-37.3-12.42-53.86ZM284.14,154.63c-1.41.94-3.01,1.78-4.75,2.52.51-7.07.51-14.11-.03-21.06,2.1,5.97,3.71,12.16,4.78,18.54ZM279.24,159.05c1.9-.75,3.64-1.62,5.2-2.58.84,5.55,1.28,11.24,1.28,17.03,0,14.16-2.62,27.72-7.4,40.22-4.38,2.04-9.96,3.24-16.07,3.8,9.48-18.43,15.29-38.51,16.99-58.46ZM227.54,262.21c7.58-.75,14.34-2.11,19.96-4.05-16.94,14.99-38.38,24.99-62.01,27.67,11.77-3.57,23.04-9.24,33.65-16.95,2.88-2.09,5.68-4.32,8.4-6.67ZM181.62,260.22c4.97.83,10.14,1.49,15.43,1.95,5.54.48,10.92.72,16.07.72,3.81,0,7.49-.13,11.01-.39-14.34,11.89-30.77,20.38-48.33,24.02-1.05.03-2.11.05-3.17.05-7.79,0-15.4-.8-22.75-2.31,10.52-4.4,22.96-14.41,31.73-24.04ZM250.99,254.94c-5.82,2.62-13.12,4.34-21.21,5.29,9.22-8.31,17.48-18.07,24.64-29.17,2.47-3.83,4.77-7.76,6.9-11.77,6-.48,11.56-1.53,16.11-3.34-6.02,14.81-15.1,28.07-26.44,38.99Z"/>
            <path class="cls-1" d="M84.01,213.01c.15.1.31.15.48.15.28,0,.55-.13.71-.38.26-.39.16-.93-.23-1.19-3.68-2.47-7.33-5.89-10.68-9.87-.59-18.88,3.09-38.9,10.67-58.2,5.74,7.7,13.15,14.32,21.56,18.94.13.07.27.11.41.11.3,0,.6-.16.75-.45.23-.42.08-.94-.34-1.17-8.51-4.67-15.97-11.44-21.64-19.3,3.9-9.58,8.74-18.98,14.51-27.95,5.43-8.45,11.44-16.09,17.86-22.8,3.02,4.78,6.61,9.03,10.02,12.86.17.19.41.29.64.29.2,0,.41-.07.57-.22.35-.32.39-.86.07-1.21-3.44-3.87-7.08-8.16-10.08-12.99,14.06-14.33,30.01-24.19,46.14-28.28,3.43,7.63,9.34,14.44,16.71,20.22-7.07,5.73-13.22,12.56-17.59,19.88-.24.41-.11.93.3,1.18.14.08.29.12.44.12.29,0,.58-.15.74-.42,4.34-7.27,10.47-14.04,17.51-19.7,16.31,12.2,39.18,19.56,58.52,20.12,0,0,.02,0,.03,0,.46,0,.84-.37.86-.83.01-.47-.36-.87-.83-.88-18.9-.55-41.23-7.67-57.2-19.48,8.59-6.62,18.41-11.56,27.94-13.73,12.84,4.91,24.57,12.09,34.68,21.05h13.64c-.64-.67-1.28-1.33-1.93-1.98-23.13-23.13-53.89-35.88-86.61-35.88s-63.48,12.74-86.61,35.88c-23.13,23.13-35.88,53.89-35.88,86.61,0,19,4.3,37.33,12.43,53.89,1.74-1.71,3.6-4.91,5.83-10.04-4.87-11.53-7.87-24.03-8.65-37.12,2.87,7.78,7.48,15.66,12.86,22.16.26,7.58,1.19,14.92,2.81,21.89.09.4.45.66.84.66.06,0,.13,0,.2-.02.46-.11.75-.57.64-1.03-1.46-6.27-2.35-12.78-2.71-19.44,3.06,3.41,6.32,6.35,9.61,8.56ZM118.4,88.1c-1.93-3.35-3.54-6.96-4.54-10.87-.02-.09-.06-.16-.1-.23,13.77-8.43,29.47-14,46.27-15.87-14.59,4.76-28.87,14.06-41.63,26.98ZM210.01,66.77c-9.11,2.51-18.35,7.37-26.49,13.71-7.21-5.59-12.99-12.17-16.37-19.55.57-.13,1.15-.26,1.72-.38.07-.01.14-.04.2-.07,1.19-.04,2.38-.06,3.57-.06,13.09,0,25.67,2.24,37.37,6.36ZM112.27,77.92c1.09,4.14,2.82,7.94,4.89,11.46-6.61,6.87-12.8,14.7-18.38,23.39-5.53,8.6-10.3,17.78-14.2,27.26-4.89-7.21-8.28-15.25-9.65-23.39,9.17-15.7,22.01-29,37.34-38.72ZM72.56,199.57c-5.99-7.69-10.84-17.09-12.99-25.81,0-.09,0-.18,0-.27,0-19.77,5.11-38.37,14.06-54.55,1.68,8.03,5.24,15.91,10.19,22.97-3.28,8.25-5.91,16.71-7.79,25.2-2.44,11-3.59,21.94-3.46,32.46Z"/>
          </g>
        </g>
        <g>
          <path class="cls-1" d="M17.57,150.82c-.39,0-.79-.04-1.19-.11-3.49-.65-5.79-4.01-5.14-7.5,6.09-32.54,21.74-62.18,45.27-85.72,23.53-23.54,53.16-39.2,85.7-45.3,3.49-.65,6.85,1.64,7.51,5.14.65,3.49-1.64,6.85-5.14,7.51-60.81,11.4-109.32,59.93-120.69,120.74-.58,3.09-3.28,5.25-6.31,5.25Z"/>
          <path class="cls-1" d="M327.71,150.82c-3.03,0-5.74-2.16-6.31-5.25-11.37-60.82-59.88-109.34-120.69-120.74-3.49-.65-5.79-4.01-5.14-7.51.65-3.49,4.01-5.79,7.51-5.14,32.54,6.1,62.17,21.77,85.7,45.3,23.53,23.54,39.18,53.18,45.27,85.72.65,3.49-1.65,6.85-5.14,7.5-.4.07-.8.11-1.19.11Z"/>
          <path class="cls-1" d="M201.84,335.08c-3.03,0-5.73-2.16-6.31-5.25-.65-3.49,1.65-6.85,5.14-7.5,60.84-11.39,109.36-59.91,120.74-120.75.65-3.49,4.01-5.79,7.5-5.14,3.49.65,5.79,4.01,5.14,7.5-6.09,32.55-21.75,62.2-45.28,85.74-23.54,23.54-53.18,39.2-85.73,45.29-.4.07-.8.11-1.19.11Z"/>
          <path class="cls-1" d="M143.45,335.08c-.39,0-.79-.04-1.19-.11-32.55-6.09-62.19-21.75-85.73-45.29-23.54-23.54-39.2-53.19-45.29-85.74-.65-3.49,1.65-6.85,5.14-7.5,3.48-.65,6.85,1.65,7.5,5.14,11.38,60.84,59.9,109.37,120.74,120.75,3.49.65,5.79,4.01,5.14,7.5-.58,3.09-3.28,5.25-6.31,5.25Z"/>
        </g>
      </g>
      <g>
        <g>
          <path class="cls-1" d="M445.61,174.71v-7.28c12.4-1.16,12.57-2.81,10.42-8.44-2.48-6.78-5.13-13.89-7.77-20.67h-38.54c-1.82,4.96-3.97,10.75-5.95,16.54-3.31,9.76-2.15,11.25,12.24,12.57v7.28h-43v-7.28c13.23-1.65,14.39-1.98,20.67-16.87l34.9-84.02,9.1-1.82c11.25,28.94,22.49,57.06,33.74,85.84,5.46,13.89,7.28,15.55,20.84,16.87v7.28h-46.64ZM429.24,87.05c-4.63,12.9-10.92,28.28-16.04,41.68h31.76l-15.71-41.68Z"/>
          <path class="cls-1" d="M569.03,174.71v-6.65c9.98-.86,10.35-1.85,10.47-11.08l.49-47.05c-8.74,20.32-20.69,48.65-27.22,64.78h-6.03c-4.43-12.19-16.5-43.23-25.37-63.92-.98,27.09-1.23,43.84-1.11,47.66.25,7.14,1.48,8.87,11.33,9.61v6.65h-33.62v-6.65c7.76-.49,11.33-1.48,12.19-9.98.74-6.9,1.85-26.85,2.71-44.09.62-11.58-.12-11.82-11.33-12.69v-6.65h30.91l23.52,50.99,23.28-50.99h29.81v6.65c-10.72.86-11.33,1.72-11.21,8.87l.49,46.8c.12,9.24,1.23,10.22,12.19,11.08v6.65h-41.5Z"/>
          <path class="cls-1" d="M691.37,152.29c-.86,5.42-3.7,19.09-4.68,22.42h-70.45v-6.65c12.44-.49,13.3-1.6,13.3-10.96v-44.83c0-9.36-.99-10.59-10.96-10.96v-6.65h44.46c6.77,0,15.89,0,20.2-.25.12,2.22.74,12.19,1.36,20.2l-6.9.86c-1.23-4.06-2.22-6.53-3.45-8.62-2.09-3.57-3.82-4.19-10.22-4.19h-10.47c-5.79,0-5.91.25-5.91,4.31v22.42h12.07c8.5,0,9.11-.49,10.96-10.1h6.77v27.71h-6.77c-1.85-8.99-2.83-9.61-10.96-9.61h-12.07v19.71c0,6.65,1.35,9.73,8.62,9.73h8.87c8.37,0,9.73-.49,12.56-3.45,2.22-2.22,4.8-7.39,7.02-12.44l6.65,1.35Z"/>
          <path class="cls-1" d="M778.86,175.69c-.49,0-3.2-.12-4.68-.25-17-1.11-20.94-4.68-25.62-11.58-3.94-5.79-7.27-12.19-10.84-18.23-1.72-2.96-4.06-3.94-7.88-3.94h-3.32v15.4c0,9.36.62,10.1,10.96,10.96v6.65h-40.4v-6.65c9.85-.49,11.08-1.6,11.08-10.96v-45.08c0-8.99-1.11-10.35-11.08-10.71v-6.65h37.69c12.32,0,19.46,1.23,24.63,4.56,5.17,3.45,8.74,8.74,8.74,16.26,0,11.33-8.87,17.74-16.26,20.44,1.97,3.45,7.02,11.45,10.84,17.12,4.56,6.9,6.28,9.11,8.74,11.58,2.71,2.83,5.3,4.31,8.5,5.05l-1.11,6.04ZM731.2,134.31c5.91,0,9.36-.74,11.95-2.59,4.19-3.08,6.16-7.14,6.16-13.92,0-11.95-7.64-15.89-14.78-15.89-4.06,0-5.91.62-6.53,1.48-.99.86-1.48,3.2-1.48,5.67v25.25h4.68Z"/>
          <path class="cls-1" d="M785.68,174.71v-6.65c9.85-.37,10.96-1.6,10.96-10.96v-44.83c0-9.36-1.23-10.59-10.96-10.96v-6.65h40.77v6.65c-9.85.49-10.96,1.6-10.96,10.96v44.83c0,9.36,1.23,10.59,10.96,10.96v6.65h-40.77Z"/>
          <path class="cls-1" d="M913.59,151.92c-1.97,7.51-5.54,17.74-7.64,21.68-3.57.86-15.03,3.08-23.52,3.08-35.47,0-49.63-21.06-49.63-41.51,0-26.36,21.18-42.37,51.48-42.37,11.45,0,19.83,1.97,23.65,2.71,1.23,8.01,2.46,16.87,3.2,23.15l-6.9,1.23c-3.08-10.96-7.64-15.39-13.05-17.37-3.2-1.11-6.9-1.6-10.1-1.6-18.6,0-26.97,14.78-26.97,31.78,0,22.29,12.44,35.47,29.06,35.47,10.96,0,16.38-4.56,23.65-18.72l6.77,2.46Z"/>
          <path class="cls-1" d="M966.69,174.71v-6.65c6.28-.86,7.39-1.35,5.91-5.66-1.11-3.2-2.83-7.64-4.31-11.45h-25.74c-.74,2.22-2.34,6.4-3.57,10.84-1.23,4.19.37,5.91,9.85,6.28v6.65h-33.38v-6.65c9.61-.99,10.59-1.23,14.78-11.33l25.86-61.95,9.24-1.72c8.25,21.31,16.38,41.63,24.76,62.32,4.06,10.22,5.42,11.7,14.9,12.69v6.65h-38.3ZM955.73,115.47c-3.32,8.74-7.39,18.72-10.47,27.59h20.57l-10.1-27.59Z"/>
          <path class="cls-1" d="M1102.59,101.31c-7.76.62-10.59,1.72-11.08,7.39-.37,3.82-.62,8.62-.62,17.49v49.39h-9.73l-50.62-59.61v26.97c0,8.87.25,14.53.62,17.86.62,5.42,3.82,6.77,12.81,7.39v6.53h-34.24v-6.53c8.62-.86,10.59-2.59,11.33-6.9.74-4.31.74-9.48.74-18.35v-24.76c0-9.85-.25-10.84-1.85-12.69-2.59-3.08-5.91-3.82-11.45-4.19v-6.65h26.36l47.17,52.96v-21.43c0-8.87-.25-13.42-.49-17.24-.37-5.66-3.45-7.02-13.18-7.64v-6.65h34.24v6.65Z"/>
          <path class="cls-1" d="M1255,74.48c-12.74,1.16-14.88,2.81-21.67,18.52-3.97,9.26-23.16,54.58-34.73,82.7h-8.77c-8.77-22.82-26.3-67.65-35.06-88.48-4.47-10.42-7.94-11.91-19.02-12.57v-7.44h47.63v7.28c-13.4,1.16-13.89,2.48-11.25,9.43,5.29,13.56,16.87,43.17,26.46,67.81,12.57-30.1,23.98-58.55,26.3-64.83,3.31-9.59,2.31-11.41-13.07-12.4v-7.28h43.17v7.28Z"/>
          <path class="cls-1" d="M1252.15,174.71v-6.65c9.85-.37,10.96-1.6,10.96-10.96v-44.83c0-9.36-1.23-10.59-10.96-10.96v-6.65h40.77v6.65c-9.85.49-10.96,1.6-10.96,10.96v44.83c0,9.36,1.23,10.59,10.96,10.96v6.65h-40.77Z"/>
          <path class="cls-1" d="M1349.71,116.7c-2.34-8.25-6.16-16.75-17.74-16.75-7.14,0-11.45,4.31-11.45,10.59,0,6.65,4.06,10.1,15.27,14.66,15.89,6.53,24.14,13.55,24.14,25.62,0,15.76-13.3,25.86-32.76,25.86-7.27,0-16.01-1.6-22.78-4.68-1.11-3.33-2.96-14.9-4.31-21.92l6.77-1.72c1.97,6.9,8.37,21.06,22.78,21.06,7.76,0,12.32-4.06,12.32-11.45,0-6.77-4.56-11.08-15.52-15.76-15.39-6.53-23.28-13.79-23.28-25.37,0-14.29,11.95-24.02,30.54-24.02,9.73,0,16.87,2.34,19.95,2.71.49,4.43,1.35,10.35,2.59,20.08l-6.53,1.11Z"/>
          <path class="cls-1" d="M1410.71,174.71v-6.65c6.28-.86,7.39-1.35,5.91-5.66-1.11-3.2-2.83-7.64-4.31-11.45h-25.74c-.74,2.22-2.34,6.4-3.57,10.84-1.23,4.19.37,5.91,9.85,6.28v6.65h-33.38v-6.65c9.61-.99,10.59-1.23,14.78-11.33l25.86-61.95,9.24-1.72c8.25,21.31,16.38,41.63,24.76,62.32,4.06,10.22,5.42,11.7,14.9,12.69v6.65h-38.3ZM1399.74,115.47c-3.32,8.74-7.39,18.72-10.47,27.59h20.57l-10.1-27.59Z"/>
        </g>
        <g>
          <path class="cls-1" d="M440.13,215.59v54.05h-8.87v-54.05h8.87Z"/>
          <path class="cls-1" d="M458.39,234.02v23.72c0,1.61.38,2.76,1.13,3.46.75.7,2.03,1.05,3.85,1.05h5.44v7.39h-7c-3.99,0-7.05-.93-9.18-2.8s-3.19-4.9-3.19-9.1v-23.72h-5.05v-7.23h5.05v-10.65h8.94v10.65h10.42v7.23h-10.42Z"/>
          <path class="cls-1" d="M492.99,219.48c-1.09-1.09-1.63-2.44-1.63-4.04s.54-2.96,1.63-4.04c1.09-1.09,2.44-1.63,4.04-1.63s2.88.54,3.97,1.63,1.63,2.44,1.63,4.04-.54,2.96-1.63,4.04-2.41,1.63-3.97,1.63-2.96-.54-4.04-1.63ZM501.39,226.79v42.85h-8.87v-42.85h8.87Z"/>
          <path class="cls-1" d="M515.11,268.51c-2.67-1.22-4.78-2.88-6.34-4.98-1.56-2.1-2.39-4.45-2.49-7.04h9.18c.16,1.82,1.02,3.33,2.61,4.55,1.58,1.22,3.56,1.83,5.95,1.83s4.42-.48,5.79-1.44c1.37-.96,2.06-2.19,2.06-3.69,0-1.61-.77-2.8-2.29-3.58-1.53-.78-3.95-1.63-7.27-2.57-3.22-.88-5.83-1.74-7.85-2.57-2.02-.83-3.77-2.1-5.25-3.81s-2.22-3.97-2.22-6.77c0-2.28.67-4.37,2.02-6.26,1.35-1.89,3.28-3.38,5.79-4.47,2.51-1.09,5.41-1.63,8.67-1.63,4.87,0,8.8,1.23,11.78,3.69,2.98,2.46,4.58,5.82,4.78,10.07h-8.87c-.16-1.92-.93-3.45-2.33-4.59-1.4-1.14-3.29-1.71-5.68-1.71s-4.12.44-5.37,1.32c-1.24.88-1.87,2.05-1.87,3.5,0,1.14.41,2.1,1.24,2.88.83.78,1.84,1.39,3.03,1.83,1.19.44,2.96,1,5.29,1.67,3.11.83,5.66,1.67,7.66,2.53,2,.86,3.72,2.11,5.17,3.77,1.45,1.66,2.2,3.86,2.25,6.61,0,2.44-.67,4.62-2.02,6.53-1.35,1.92-3.25,3.42-5.72,4.51-2.46,1.09-5.35,1.63-8.67,1.63s-6.39-.61-9.06-1.83Z"/>
          <path class="cls-1" d="M565.43,236.58c1.79-3.32,4.23-5.9,7.31-7.74,3.08-1.84,6.49-2.76,10.23-2.76,3.37,0,6.31.66,8.83,1.98,2.51,1.32,4.52,2.97,6.03,4.94v-6.22h8.94v42.85h-8.94v-6.38c-1.5,2.02-3.55,3.71-6.14,5.05s-5.55,2.02-8.87,2.02c-3.68,0-7.05-.95-10.11-2.84-3.06-1.89-5.48-4.54-7.27-7.93-1.79-3.4-2.68-7.25-2.68-11.55s.89-8.11,2.68-11.43ZM595.99,240.47c-1.22-2.18-2.81-3.84-4.78-4.98-1.97-1.14-4.1-1.71-6.38-1.71s-4.41.56-6.38,1.67c-1.97,1.12-3.57,2.75-4.78,4.9-1.22,2.15-1.83,4.71-1.83,7.66s.61,5.55,1.83,7.78c1.22,2.23,2.83,3.93,4.82,5.09,2,1.17,4.11,1.75,6.34,1.75s4.41-.57,6.38-1.71c1.97-1.14,3.56-2.81,4.78-5.02,1.22-2.2,1.83-4.78,1.83-7.74s-.61-5.52-1.83-7.7Z"/>
          <path class="cls-1" d="M622.92,212.09v57.55h-8.87v-57.55h8.87Z"/>
          <path class="cls-1" d="M639.1,212.09v57.55h-8.87v-57.55h8.87Z"/>
          <path class="cls-1" d="M677.51,278.43h-8.87v-71.08h8.87v71.08Z"/>
          <path class="cls-1" d="M750.23,215.59v54.05h-8.87v-23.64h-25.43v23.64h-8.87v-54.05h8.87v23.18h25.43v-23.18h8.87Z"/>
          <path class="cls-1" d="M766.02,267.58c-3.27-1.84-5.83-4.43-7.7-7.78s-2.8-7.22-2.8-11.63.96-8.22,2.88-11.59c1.92-3.37,4.54-5.96,7.85-7.78,3.32-1.81,7.03-2.72,11.12-2.72s7.8.91,11.12,2.72c3.32,1.82,5.94,4.41,7.86,7.78,1.92,3.37,2.88,7.23,2.88,11.59s-.99,8.22-2.96,11.59c-1.97,3.37-4.65,5.98-8.05,7.82-3.4,1.84-7.14,2.76-11.24,2.76s-7.7-.92-10.97-2.76ZM783.4,261c2-1.09,3.62-2.72,4.86-4.9s1.87-4.82,1.87-7.93-.6-5.74-1.79-7.89c-1.19-2.15-2.77-3.77-4.74-4.86-1.97-1.09-4.1-1.63-6.38-1.63s-4.39.54-6.34,1.63c-1.94,1.09-3.49,2.71-4.63,4.86-1.14,2.15-1.71,4.78-1.71,7.89,0,4.62,1.18,8.18,3.54,10.69,2.36,2.52,5.33,3.77,8.9,3.77,2.28,0,4.42-.54,6.42-1.63Z"/>
          <path class="cls-1" d="M813.45,234.02v23.72c0,1.61.38,2.76,1.13,3.46.75.7,2.03,1.05,3.85,1.05h5.44v7.39h-7c-3.99,0-7.05-.93-9.18-2.8s-3.19-4.9-3.19-9.1v-23.72h-5.05v-7.23h5.05v-10.65h8.94v10.65h10.42v7.23h-10.42Z"/>
          <path class="cls-1" d="M865.91,251.52h-32.74c.26,3.42,1.53,6.17,3.81,8.24,2.28,2.07,5.08,3.11,8.4,3.11,4.77,0,8.14-2,10.11-5.99h9.57c-1.3,3.94-3.64,7.17-7.04,9.68-3.4,2.52-7.61,3.77-12.64,3.77-4.1,0-7.77-.92-11-2.76-3.24-1.84-5.78-4.43-7.62-7.78-1.84-3.34-2.76-7.22-2.76-11.63s.89-8.28,2.68-11.63c1.79-3.34,4.3-5.92,7.54-7.74,3.24-1.81,6.96-2.72,11.16-2.72s7.65.88,10.81,2.64c3.16,1.76,5.62,4.24,7.39,7.43,1.76,3.19,2.64,6.86,2.64,11,0,1.61-.1,3.06-.31,4.36ZM856.97,244.36c-.05-3.27-1.22-5.88-3.5-7.85-2.28-1.97-5.11-2.96-8.48-2.96-3.06,0-5.68.97-7.85,2.92s-3.47,4.58-3.89,7.89h23.72Z"/>
          <path class="cls-1" d="M879.8,212.09v57.55h-8.87v-57.55h8.87Z"/>
          <path class="cls-1" d="M926.57,251.52h-32.74c.26,3.42,1.53,6.17,3.81,8.24,2.28,2.07,5.08,3.11,8.4,3.11,4.77,0,8.14-2,10.11-5.99h9.57c-1.3,3.94-3.64,7.17-7.04,9.68-3.4,2.52-7.61,3.77-12.64,3.77-4.1,0-7.77-.92-11-2.76-3.24-1.84-5.78-4.43-7.62-7.78-1.84-3.34-2.76-7.22-2.76-11.63s.89-8.28,2.68-11.63c1.79-3.34,4.3-5.92,7.54-7.74,3.24-1.81,6.96-2.72,11.16-2.72s7.65.88,10.81,2.64c3.16,1.76,5.62,4.24,7.39,7.43,1.76,3.19,2.64,6.86,2.64,11,0,1.61-.1,3.06-.31,4.36ZM917.63,244.36c-.05-3.27-1.22-5.88-3.5-7.85-2.28-1.97-5.11-2.96-8.48-2.96-3.06,0-5.68.97-7.85,2.92s-3.47,4.58-3.89,7.89h23.72Z"/>
          <path class="cls-1" d="M945.68,227.91c2.15-1.22,4.71-1.83,7.66-1.83v9.18h-2.25c-3.47,0-6.11.88-7.89,2.64-1.79,1.76-2.68,4.82-2.68,9.18v22.55h-8.87v-42.85h8.87v6.22c1.3-2.18,3.02-3.88,5.17-5.09Z"/>
          <path class="cls-1" d="M969.02,215.28l-17.19,8.48v-6.53l17.19-9.49v7.54ZM965.44,226.79v42.85h-8.87v-42.85h8.87Z"/>
          <path class="cls-1" d="M972.49,236.58c1.79-3.32,4.23-5.9,7.31-7.74,3.08-1.84,6.49-2.76,10.23-2.76,3.37,0,6.31.66,8.83,1.98,2.51,1.32,4.52,2.97,6.03,4.94v-6.22h8.94v42.85h-8.94v-6.38c-1.5,2.02-3.55,3.71-6.14,5.05s-5.55,2.02-8.87,2.02c-3.68,0-7.05-.95-10.11-2.84-3.06-1.89-5.48-4.54-7.27-7.93-1.79-3.4-2.68-7.25-2.68-11.55s.89-8.11,2.68-11.43ZM1003.05,240.47c-1.22-2.18-2.81-3.84-4.78-4.98-1.97-1.14-4.1-1.71-6.38-1.71s-4.41.56-6.38,1.67c-1.97,1.12-3.57,2.75-4.78,4.9-1.22,2.15-1.83,4.71-1.83,7.66s.61,5.55,1.83,7.78c1.22,2.23,2.83,3.93,4.82,5.09,2,1.17,4.11,1.75,6.34,1.75s4.41-.57,6.38-1.71c1.97-1.14,3.56-2.81,4.78-5.02,1.22-2.2,1.83-4.78,1.83-7.74s-.61-5.52-1.83-7.7Z"/>
          <path class="cls-1" d="M1082.81,269.64l-6.69-6.69c-2.59,2.59-5.42,4.52-8.48,5.79-3.06,1.27-6.48,1.91-10.27,1.91s-7.23-.67-10.19-2.02-5.24-3.28-6.84-5.79c-1.61-2.51-2.41-5.43-2.41-8.75,0-3.73,1.06-7.06,3.19-9.99,2.13-2.93,5.29-5.25,9.49-6.96-1.5-1.81-2.57-3.51-3.19-5.09-.62-1.58-.93-3.33-.93-5.25,0-2.38.61-4.51,1.83-6.38,1.22-1.87,2.97-3.34,5.25-4.43,2.28-1.09,4.93-1.63,7.93-1.63s5.66.58,7.82,1.75c2.15,1.17,3.76,2.76,4.82,4.78,1.06,2.02,1.49,4.28,1.28,6.77h-8.87c.05-1.92-.42-3.41-1.4-4.47-.99-1.06-2.33-1.59-4.04-1.59s-3.1.51-4.16,1.52c-1.06,1.01-1.59,2.24-1.59,3.69s.4,2.79,1.21,4.16c.8,1.37,2.22,3.15,4.24,5.33l14.31,14.23,5.52-9.1h9.57l-7,11.98-1.94,3.19,13.14,13.07h-11.59ZM1070.28,257.12l-14.31-14.39c-6.12,2.44-9.18,6.12-9.18,11.04,0,2.64.98,4.86,2.96,6.65,1.97,1.79,4.51,2.68,7.62,2.68,4.87,0,9.18-2,12.91-5.99Z"/>
          <path class="cls-1" d="M1150.7,215.59v7.23h-14.39v46.82h-8.87v-46.82h-14.46v-7.23h37.72Z"/>
          <path class="cls-1" d="M1187.66,226.79v42.85h-8.87v-5.05c-1.4,1.76-3.23,3.15-5.48,4.16-2.26,1.01-4.65,1.52-7.19,1.52-3.37,0-6.39-.7-9.06-2.1-2.67-1.4-4.77-3.47-6.3-6.22-1.53-2.75-2.29-6.07-2.29-9.96v-25.2h8.79v23.88c0,3.84.96,6.78,2.88,8.83,1.92,2.05,4.54,3.07,7.85,3.07s5.95-1.02,7.89-3.07c1.94-2.05,2.92-4.99,2.92-8.83v-23.88h8.87Z"/>
          <path class="cls-1" d="M1208.98,227.91c2.15-1.22,4.71-1.83,7.66-1.83v9.18h-2.25c-3.47,0-6.11.88-7.89,2.64-1.79,1.76-2.68,4.82-2.68,9.18v22.55h-8.87v-42.85h8.87v6.22c1.3-2.18,3.02-3.88,5.17-5.09Z"/>
          <path class="cls-1" d="M1220.35,219.48c-1.09-1.09-1.63-2.44-1.63-4.04s.54-2.96,1.63-4.04c1.09-1.09,2.44-1.63,4.04-1.63s2.88.54,3.97,1.63,1.63,2.44,1.63,4.04-.54,2.96-1.63,4.04-2.41,1.63-3.97,1.63-2.96-.54-4.04-1.63ZM1228.75,226.79v42.85h-8.87v-42.85h8.87Z"/>
          <path class="cls-1" d="M1242.46,268.51c-2.67-1.22-4.78-2.88-6.34-4.98-1.56-2.1-2.39-4.45-2.49-7.04h9.18c.16,1.82,1.02,3.33,2.61,4.55,1.58,1.22,3.56,1.83,5.95,1.83s4.42-.48,5.79-1.44c1.37-.96,2.06-2.19,2.06-3.69,0-1.61-.77-2.8-2.29-3.58-1.53-.78-3.95-1.63-7.27-2.57-3.22-.88-5.83-1.74-7.85-2.57-2.02-.83-3.77-2.1-5.25-3.81s-2.22-3.97-2.22-6.77c0-2.28.67-4.37,2.02-6.26,1.35-1.89,3.28-3.38,5.79-4.47,2.51-1.09,5.41-1.63,8.67-1.63,4.87,0,8.8,1.23,11.78,3.69,2.98,2.46,4.58,5.82,4.78,10.07h-8.87c-.16-1.92-.93-3.45-2.33-4.59-1.4-1.14-3.29-1.71-5.68-1.71s-4.12.44-5.37,1.32c-1.24.88-1.87,2.05-1.87,3.5,0,1.14.41,2.1,1.24,2.88.83.78,1.84,1.39,3.03,1.83,1.19.44,2.96,1,5.29,1.67,3.11.83,5.66,1.67,7.66,2.53,2,.86,3.72,2.11,5.17,3.77,1.45,1.66,2.2,3.86,2.25,6.61,0,2.44-.67,4.62-2.02,6.53-1.35,1.92-3.25,3.42-5.72,4.51-2.46,1.09-5.35,1.63-8.67,1.63s-6.39-.61-9.06-1.83Z"/>
          <path class="cls-1" d="M1334.15,228.19c2.67,1.4,4.77,3.47,6.3,6.22,1.53,2.75,2.29,6.07,2.29,9.95v25.28h-8.79v-23.95c0-3.84-.96-6.78-2.88-8.83-1.92-2.05-4.54-3.07-7.86-3.07s-5.95,1.02-7.89,3.07c-1.94,2.05-2.92,4.99-2.92,8.83v23.95h-8.79v-23.95c0-3.84-.96-6.78-2.88-8.83-1.92-2.05-4.54-3.07-7.85-3.07s-5.95,1.02-7.89,3.07c-1.94,2.05-2.92,4.99-2.92,8.83v23.95h-8.87v-42.85h8.87v4.9c1.45-1.76,3.29-3.14,5.52-4.12,2.23-.98,4.61-1.48,7.15-1.48,3.42,0,6.48.73,9.18,2.18,2.7,1.45,4.77,3.55,6.22,6.3,1.3-2.59,3.32-4.65,6.07-6.18,2.75-1.53,5.7-2.29,8.87-2.29,3.37,0,6.39.7,9.06,2.1Z"/>
          <path class="cls-1" d="M1357.55,267.58c-3.27-1.84-5.83-4.43-7.7-7.78s-2.8-7.22-2.8-11.63.96-8.22,2.88-11.59c1.92-3.37,4.54-5.96,7.85-7.78,3.32-1.81,7.03-2.72,11.12-2.72s7.8.91,11.12,2.72c3.32,1.82,5.94,4.41,7.86,7.78,1.92,3.37,2.88,7.23,2.88,11.59s-.99,8.22-2.96,11.59c-1.97,3.37-4.65,5.98-8.05,7.82-3.4,1.84-7.14,2.76-11.24,2.76s-7.7-.92-10.97-2.76ZM1374.93,261c2-1.09,3.62-2.72,4.86-4.9s1.87-4.82,1.87-7.93-.6-5.74-1.79-7.89c-1.19-2.15-2.77-3.77-4.74-4.86-1.97-1.09-4.1-1.63-6.38-1.63s-4.39.54-6.34,1.63c-1.94,1.09-3.49,2.71-4.63,4.86-1.14,2.15-1.71,4.78-1.71,7.89,0,4.62,1.18,8.18,3.54,10.69,2.36,2.52,5.33,3.77,8.9,3.77,2.28,0,4.42-.54,6.42-1.63Z"/>
        </g>
      </g>
    </g>
  </g>
</svg>